<svg viewBox="0 0 2915 687" xmlns="http://www.w3.org/2000/svg" role="img" aria-label="Skywage Logo">
  <!-- Outlined paths (no <text>) to avoid font dependency -->
  <path fill="#FFFFFF" d="M229.62 523.75L229.62 523.75L43.90 523.75Q34.77 523.75 28.26 518.21Q21.74 512.67 21.74 503.54L21.74 503.54Q21.74 494.42 28.26 489.21Q34.77 484.00 43.90 484.00L43.90 484.00L229.62 484.00Q258.94 484.00 271.98 469.01Q285.01 454.02 285.01 425.35L285.01 425.35Q285.01 394.72 271.98 380.38Q258.94 366.05 229.62 366.05L229.62 366.05L109.06 366.05Q60.19 366.05 34.77 341.94Q9.36 317.82 9.36 270.25L9.36 270.25Q9.36 221.38 34.77 195.64Q60.19 169.90 109.06 169.90L109.06 169.90L288.27 169.90Q297.39 169.90 303.91 175.11Q310.42 180.33 310.42 189.45L310.42 189.45Q310.42 198.57 303.91 204.11Q297.39 209.65 288.27 209.65L288.27 209.65L109.06 209.65Q79.09 209.65 66.05 224.96Q53.02 240.28 53.02 270.25L53.02 270.25Q53.02 299.58 66.05 312.94Q79.09 326.30 109.06 326.30L109.06 326.30L229.62 326.30Q277.84 326.30 303.58 351.38Q329.32 376.47 329.32 425.35L329.32 425.35Q329.32 472.92 303.58 498.33Q277.84 523.75 229.62 523.75ZM682.52 485.30L682.52 485.30Q689.68 491.16 690.34 500.29Q690.99 509.41 685.12 516.58L685.12 516.58Q677.95 524.40 668.18 524.40L668.18 524.40Q661.01 524.40 653.84 519.18L653.84 519.18L445.31 341.94L445.31 502.24Q445.31 511.36 439.12 517.88Q432.93 524.40 423.81 524.40L423.81 524.40Q414.69 524.40 408.17 517.88Q401.65 511.36 401.65 502.24L401.65 502.24L401.65 42.18Q401.65 33.05 408.17 26.54Q414.69 20.02 423.81 20.02L423.81 20.02Q432.93 20.02 439.12 26.54Q445.31 33.05 445.31 42.18L445.31 42.18L445.31 295.67L634.29 171.20Q641.46 165.99 650.26 167.94Q659.06 169.90 664.27 177.07L664.27 177.07Q669.48 184.89 667.53 193.68Q665.57 202.48 658.40 207.70L658.40 207.70L485.72 320.43L682.52 485.30ZM1028.54 167.29L1028.54 167.29Q1037.67 167.29 1044.18 173.81Q1050.70 180.33 1050.70 189.45L1050.70 189.45L1050.70 495.73Q1050.70 583.05 1005.73 627.36Q960.77 671.67 873.45 671.67L873.45 671.67L855.20 671.67Q846.08 671.67 839.56 666.46Q833.05 661.24 833.05 652.12L833.05 652.12Q833.05 643.00 839.56 637.46Q846.08 631.92 855.20 631.92L855.20 631.92L873.45 631.92Q941.87 631.92 974.13 597.71Q1006.39 563.50 1006.39 495.73L1006.39 495.73L1006.39 487.25Q965.98 524.40 894.30 524.40L894.30 524.40Q816.10 524.40 776.03 483.34Q735.95 442.29 735.95 362.79L735.95 362.79L735.95 189.45Q735.95 180.33 742.47 173.81Q748.98 167.29 758.11 167.29L758.11 167.29Q767.23 167.29 773.42 173.81Q779.61 180.33 779.61 189.45L779.61 189.45L779.61 362.79Q779.61 424.04 807.31 454.35Q835.00 484.65 894.30 484.65L894.30 484.65Q952.95 484.65 979.67 454.35Q1006.39 424.04 1006.39 362.79L1006.39 362.79L1006.39 189.45Q1006.39 180.33 1012.90 173.81Q1019.42 167.29 1028.54 167.29ZM1622.85 167.29L1622.85 167.29Q1631.97 167.29 1638.49 173.81Q1645.00 180.33 1645.00 189.45L1645.00 189.45L1645.00 382.99Q1645.00 452.06 1609.49 488.23Q1573.97 524.40 1506.20 524.40L1506.20 524.40Q1426.05 524.40 1390.86 470.31L1390.86 470.31Q1356.97 524.40 1274.87 524.40L1274.87 524.40Q1207.75 524.40 1172.56 488.23Q1137.37 452.06 1137.37 382.99L1137.37 382.99L1137.37 189.45Q1137.37 180.33 1143.88 173.81Q1150.40 167.29 1159.52 167.29L1159.52 167.29Q1168.65 167.29 1174.84 173.81Q1181.03 180.33 1181.03 189.45L1181.03 189.45L1181.03 382.99Q1181.03 433.82 1203.51 459.23Q1225.99 484.65 1274.87 484.65L1274.87 484.65Q1323.74 484.65 1346.55 459.23Q1369.36 433.82 1369.36 382.99L1369.36 382.99L1369.36 189.45Q1369.36 180.33 1375.87 173.81Q1382.39 167.29 1391.51 167.29L1391.51 167.29Q1400.63 167.29 1406.83 173.81Q1413.02 180.33 1413.02 189.45L1413.02 189.45L1413.02 382.99Q1413.02 433.82 1435.17 459.23Q1457.33 484.65 1506.20 484.65L1506.20 484.65Q1555.73 484.65 1578.54 459.23Q1601.34 433.82 1601.34 382.99L1601.34 382.99L1601.34 189.45Q1601.34 180.33 1607.53 173.81Q1613.72 167.29 1622.85 167.29ZM2052.29 524.40L2052.29 524.40Q2043.16 524.40 2036.65 517.88Q2030.13 511.36 2030.13 502.24L2030.13 502.24L2030.13 348.45Q2030.13 278.07 1998.20 242.56Q1966.27 207.04 1898.50 207.04L1898.50 207.04Q1830.07 207.04 1797.49 242.56Q1764.91 278.07 1764.91 348.45L1764.91 348.45Q1764.91 416.22 1797.49 450.44Q1830.07 484.65 1898.50 484.65L1898.50 484.65L1916.74 484.65Q1925.87 484.65 1932.38 489.86Q1938.90 495.07 1938.90 504.20L1938.90 504.20Q1938.90 513.32 1932.38 518.86Q1925.87 524.40 1916.74 524.40L1916.74 524.40L1898.50 524.40Q1811.18 524.40 1766.21 480.09Q1721.25 435.77 1721.25 348.45L1721.25 348.45Q1721.25 259.18 1766.21 213.23Q1811.18 167.29 1898.50 167.29L1898.50 167.29Q1985.82 167.29 2030.13 213.23Q2074.44 259.18 2074.44 348.45L2074.44 348.45L2074.44 502.24Q2074.44 511.36 2067.93 517.88Q2061.41 524.40 2052.29 524.40ZM2503.88 348.45L2503.88 495.73Q2503.88 583.05 2458.59 627.36Q2413.30 671.67 2325.98 671.67L2325.98 671.67L2308.38 671.67Q2299.26 671.67 2292.75 666.46Q2286.23 661.24 2286.23 652.12L2286.23 652.12Q2286.23 643.00 2292.75 637.46Q2299.26 631.92 2308.38 631.92L2308.38 631.92L2325.98 631.92Q2395.05 631.92 2427.31 597.71Q2459.57 563.50 2459.57 495.73L2459.57 495.73L2459.57 348.45Q2459.57 278.07 2427.64 242.56Q2395.71 207.04 2327.93 207.04L2327.93 207.04Q2258.86 207.04 2226.60 242.56Q2194.35 278.07 2194.35 348.45L2194.35 348.45Q2194.35 416.22 2226.60 450.44Q2258.86 484.65 2327.93 484.65L2327.93 484.65L2346.18 484.65Q2355.30 484.65 2361.49 489.86Q2367.68 495.07 2367.68 504.20L2367.68 504.20Q2367.68 513.32 2361.49 518.86Q2355.30 524.40 2346.18 524.40L2346.18 524.40L2327.93 524.40Q2240.61 524.40 2195.65 480.09Q2150.69 435.77 2150.69 348.45L2150.69 348.45Q2150.69 259.18 2195.65 213.23Q2240.61 167.29 2327.93 167.29L2327.93 167.29Q2414.60 167.29 2459.24 213.23Q2503.88 259.18 2503.88 348.45L2503.88 348.45ZM2872.71 524.40L2872.71 524.40L2757.37 524.40Q2670.05 524.40 2625.09 480.09Q2580.12 435.77 2580.12 348.45L2580.12 348.45Q2580.12 259.18 2625.09 213.23Q2670.05 167.29 2757.37 167.29L2757.37 167.29Q2844.04 167.29 2888.35 214.21L2888.35 214.21Q2894.87 220.08 2894.87 228.55Q2894.87 237.02 2889.01 243.54L2889.01 243.54L2688.30 469.01Q2702.63 474.87 2719.58 479.76Q2736.52 484.65 2757.37 484.65L2757.37 484.65L2872.71 484.65Q2881.84 484.65 2888.35 489.86Q2894.87 495.07 2894.87 504.20L2894.87 504.20Q2894.87 513.32 2888.35 518.86Q2881.84 524.40 2872.71 524.40ZM2757.37 207.04L2757.37 207.04Q2688.95 207.04 2656.69 242.56Q2624.44 278.07 2624.44 348.45L2624.44 348.45Q2624.44 411.66 2652.46 443.59L2652.46 443.59L2841.44 231.81Q2825.80 221.38 2804.94 214.21Q2784.09 207.04 2757.37 207.04Z" />
</svg>